<svg width="19" height="20" viewBox="0 0 19 20" fill="none" xmlns="http://www.w3.org/2000/svg">
<path d="M13.8174 11C14.5296 11 15.1564 10.59 15.4793 9.97L18.879 3.48C19.2304 2.82 18.7745 2 18.0528 2H3.99802L3.10535 0H0V2H1.89929L5.31803 9.59L4.036 12.03C3.34276 13.37 4.25442 15 5.69788 15H17.0937V13H5.69788L6.7425 11H13.8174ZM4.90018 4H16.4384L13.8174 9H7.15084L4.90018 4ZM5.69788 16C4.65327 16 3.80809 16.9 3.80809 18C3.80809 19.1 4.65327 20 5.69788 20C6.7425 20 7.59718 19.1 7.59718 18C7.59718 16.9 6.7425 16 5.69788 16ZM15.1944 16C14.1497 16 13.3046 16.9 13.3046 18C13.3046 19.1 14.1497 20 15.1944 20C16.239 20 17.0937 19.1 17.0937 18C17.0937 16.9 16.239 16 15.1944 16Z" fill="white"/>
</svg>
